<?xml version="1.0" standalone="no"?>
<!DOCTYPE svg PUBLIC "-//W3C//DTD SVG 20010904//EN"
 "http://www.w3.org/TR/2001/REC-SVG-20010904/DTD/svg10.dtd">
<svg version="1.0" xmlns="http://www.w3.org/2000/svg"
 width="227.000000pt" height="222.000000pt" viewBox="0 0 227.000000 222.000000"
 preserveAspectRatio="xMidYMid meet">

<g transform="translate(0.000000,222.000000) scale(0.100000,-0.100000)"
fill="#000000" stroke="none">
<path d="M880 1505 c0 -149 2 -175 15 -175 13 0 15 26 15 175 0 149 -2 175
-15 175 -13 0 -15 -26 -15 -175z"/>
<path d="M1120 1590 c0 -73 3 -90 15 -90 12 0 15 17 15 90 0 73 -3 90 -15 90
-12 0 -15 -17 -15 -90z"/>
<path d="M1362 1651 c0 -21 5 -30 19 -34 16 -4 19 0 19 29 0 26 -4 34 -18 34
-14 0 -19 -8 -20 -29z"/>
<path d="M1369 1488 c-1 -2 -3 -85 -4 -185 -2 -172 -1 -183 16 -183 18 0 19
11 19 185 0 158 -2 185 -15 185 -8 0 -16 -1 -16 -2z"/>
<path d="M1127 1314 c-4 -4 -7 -49 -7 -101 0 -76 3 -93 15 -93 8 0 15 5 15 10
1 6 1 49 1 97 1 80 -6 105 -24 87z"/>
<path d="M1265 1260 c-3 -6 1 -7 9 -4 18 7 21 14 7 14 -6 0 -13 -4 -16 -10z"/>
<path d="M880 1160 c0 -29 4 -40 15 -40 11 0 15 11 15 40 0 29 -4 40 -15 40
-11 0 -15 -11 -15 -40z"/>
<path d="M198 982 c-15 -3 -18 -15 -18 -73 0 -55 3 -69 15 -69 10 0 15 10 15
29 0 26 4 30 31 33 39 4 59 30 43 55 -11 18 -57 31 -86 25z m62 -42 c0 -15 -7
-20 -25 -20 -18 0 -25 5 -25 20 0 15 7 20 25 20 18 0 25 -5 25 -20z"/>
<path d="M1180 915 c0 -60 3 -75 15 -75 10 0 15 10 15 29 0 16 3 36 6 45 8 22
44 20 46 -1 0 -10 2 -22 3 -28 2 -5 3 -18 4 -28 2 -37 26 -10 24 27 -3 61 -9
69 -48 63 -32 -5 -35 -4 -35 19 0 15 -6 24 -15 24 -12 0 -15 -15 -15 -75z"/>
<path d="M1630 915 c0 -60 3 -75 15 -75 12 0 15 15 15 75 0 60 -3 75 -15 75
-12 0 -15 -15 -15 -75z"/>
<path d="M770 969 c0 -6 9 -9 20 -6 22 6 22 5 20 -70 -1 -42 2 -53 14 -53 13
0 16 12 16 60 0 33 5 61 10 61 6 1 14 2 19 3 5 0 13 4 17 9 4 4 -20 7 -54 7
-39 0 -62 -4 -62 -11z"/>
<path d="M325 934 c-19 -19 -19 -44 0 -71 12 -16 25 -21 60 -21 l45 1 0 52 0
52 -45 1 c-27 1 -50 -5 -60 -14z m73 -30 c2 -11 -4 -27 -13 -34 -22 -19 -50 9
-40 39 9 29 49 25 53 -5z"/>
<path d="M473 923 c-15 -23 -15 -28 -2 -52 12 -22 22 -26 62 -27 l47 -2 0 53
0 52 -45 1 c-38 1 -48 -3 -62 -25z m75 -26 c4 -33 -22 -47 -45 -25 -12 13 -13
20 -3 37 15 30 44 23 48 -12z"/>
<path d="M620 894 c0 -41 4 -54 15 -54 11 0 15 11 15 36 0 27 5 37 20 41 33 9
23 29 -15 30 l-35 1 0 -54z"/>
<path d="M920 935 c-18 -22 -15 -66 6 -82 23 -17 46 -17 70 2 18 14 17 15 -15
12 -20 -1 -36 3 -38 11 -3 8 8 12 36 12 29 0 41 4 41 14 0 40 -74 62 -100 31z
m68 -22 c2 -8 -6 -13 -22 -13 -17 0 -26 5 -26 16 0 19 41 16 48 -3z"/>
<path d="M1063 942 c-24 -15 -26 -59 -4 -81 25 -25 50 -27 77 -5 18 15 17 15
-13 10 -37 -6 -58 13 -48 44 6 18 12 20 43 14 34 -7 36 -6 23 9 -14 18 -57 22
-78 9z"/>
<path d="M1330 893 c0 -40 4 -53 15 -53 10 0 15 10 15 33 0 41 12 60 36 55 14
-2 20 -13 22 -46 4 -54 32 -60 32 -6 0 60 -13 73 -70 72 l-50 -1 0 -54z"/>
<path d="M1496 934 c-35 -34 -9 -94 40 -94 26 0 64 32 64 53 0 47 -70 75 -104
41z m63 -23 c14 -24 -8 -55 -32 -45 -17 6 -24 44 -10 57 12 13 32 7 42 -12z"/>
<path d="M1706 934 c-34 -33 -7 -94 42 -94 24 0 62 32 62 53 0 47 -70 75 -104
41z m68 -26 c14 -22 -12 -52 -37 -42 -17 6 -23 44 -10 58 11 11 35 3 47 -16z"/>
<path d="M1845 934 c-37 -37 -4 -100 47 -90 23 4 28 2 28 -13 0 -24 -18 -31
-49 -19 -29 11 -38 4 -21 -17 17 -21 63 -19 83 3 12 13 17 37 17 84 l0 65 -45
1 c-27 1 -50 -5 -60 -14z m73 -30 c4 -29 -23 -51 -43 -34 -16 13 -20 42 -8 54
14 14 48 1 51 -20z"/>
<path d="M2001 895 c17 -44 19 -62 10 -85 -16 -46 15 -39 35 8 48 113 54 132
40 132 -7 0 -20 -17 -28 -37 l-15 -38 -17 38 c-9 20 -23 37 -31 37 -12 0 -11
-9 6 -55z"/>
</g>
</svg>
