<svg width="779.9188232421875px" height="122.00003662109374px" xmlns="http://www.w3.org/2000/svg" viewBox="-139.95941162109375 13.99998168945313 779.9188232421875 122.00003662109374" style="background: rgba(0, 0, 0, 0);" preserveAspectRatio="xMidYMid"><defs><filter id="editing-jagged" x="-100%" y="-100%" width="300%" height="300%"><feTurbulence result="turb" baseFrequency="0.1" numOctaves="1" seed="1"></feTurbulence><feDisplacementMap in="SourceGraphic" in2="turb" scale="10"></feDisplacementMap></filter></defs><g filter="url(#editing-jagged)"><g transform="translate(-28.97500917315483, 104.76000213623047)"><path d="M26.11-42.69L26.11-42.69L26.11-42.69Q41.79-42.69 41.79-31.62L41.79-31.62L41.79-31.62Q41.79-25.54 37.89-21.89L37.89-21.89L37.89-21.89Q34.05-18.24 27.33-18.24L27.33-18.24L27.33-18.24Q24.19-18.24 21.76-20.03L21.76-20.03L21.76-20.03Q20.61-20.80 19.84-21.82L19.84-21.82L19.84-21.82Q24.51-21.82 26.98-24.67L26.98-24.67L26.98-24.67Q29.44-27.52 29.44-33.09L29.44-33.09L29.44-33.09Q29.44-38.66 23.94-38.66L23.94-38.66L22.40-38.66L22.40-38.66Q22.02-38.66 21.70-38.59L21.70-38.59L14.34 0L0.45 0L8.32-41.92L8.32-41.92Q15.17-42.56 19.14-42.62L19.14-42.62L19.14-42.62Q23.10-42.69 26.11-42.69ZM44.90-1.92L44.90-1.92L44.90-1.92Q43.39-3.58 42.72-6.21L42.72-6.21L42.72-6.21Q42.05-8.83 42.05-13.12L42.05-13.12L42.05-13.12Q42.05-17.41 43.52-21.31L43.52-21.31L43.52-21.31Q44.99-25.22 47.68-28.03L47.68-28.03L47.68-28.03Q53.18-33.92 62.27-33.92L62.27-33.92L62.27-33.92Q65.54-33.92 67.90-32.83L67.90-32.83L78.85-33.92L74.11-8.96L74.11-8.96Q73.92-8.19 73.92-6.78L73.92-6.78L73.92-6.78Q73.92-5.38 74.78-4.48L74.78-4.48L74.78-4.48Q75.65-3.58 76.93-3.46L76.93-3.46L76.93-3.46Q76.29-1.28 73.95 0L73.95 0L73.95 0Q71.62 1.28 68.99 1.28L68.99 1.28L68.99 1.28Q66.37 1.28 64.61 0.29L64.61 0.29L64.61 0.29Q62.85-0.70 62.34-2.37L62.34-2.37L62.34-2.37Q61.31-0.77 59.14 0.26L59.14 0.26L59.14 0.26Q56.96 1.28 54.05 1.28L54.05 1.28L54.05 1.28Q51.14 1.28 48.77 0.51L48.77 0.51L48.77 0.51Q46.40-0.26 44.90-1.92ZM58.40-27.90L58.40-27.90L58.40-27.90Q57.66-26.75 57.02-24.80L57.02-24.80L57.02-24.80Q56.38-22.85 55.33-17.63L55.33-17.63L55.33-17.63Q54.27-12.42 54.27-8.70L54.27-8.70L54.27-8.70Q54.27-4.99 54.85-3.90L54.85-3.90L54.85-3.90Q55.42-2.82 56.45-2.82L56.45-2.82L56.45-2.82Q58.50-2.82 60-4.77L60-4.77L60-4.77Q61.50-6.72 62.08-10.18L62.08-10.18L65.47-28.93L65.47-28.93Q64.13-30.08 62.56-30.08L62.56-30.08L62.56-30.08Q60.99-30.08 60.06-29.57L60.06-29.57L60.06-29.57Q59.14-29.06 58.40-27.90ZM84.83-1.92L84.83-1.92L84.83-1.92Q83.33-3.58 82.66-6.21L82.66-6.21L82.66-6.21Q81.98-8.83 81.98-13.12L81.98-13.12L81.98-13.12Q81.98-17.41 83.46-21.31L83.46-21.31L83.46-21.31Q84.93-25.22 87.62-28.03L87.62-28.03L87.62-28.03Q93.12-33.92 102.21-33.92L102.21-33.92L102.21-33.92Q105.47-33.92 107.84-32.83L107.84-32.83L118.78-33.92L114.05-8.96L114.05-8.96Q113.86-8.19 113.86-6.78L113.86-6.78L113.86-6.78Q113.86-5.38 114.72-4.48L114.72-4.48L114.72-4.48Q115.58-3.58 116.86-3.46L116.86-3.46L116.86-3.46Q116.22-1.28 113.89 0L113.89 0L113.89 0Q111.55 1.28 108.93 1.28L108.93 1.28L108.93 1.28Q106.30 1.28 104.54 0.29L104.54 0.29L104.54 0.29Q102.78-0.70 102.27-2.37L102.27-2.37L102.27-2.37Q101.25-0.77 99.07 0.26L99.07 0.26L99.07 0.26Q96.90 1.28 93.98 1.28L93.98 1.28L93.98 1.28Q91.07 1.28 88.70 0.51L88.70 0.51L88.70 0.51Q86.34-0.26 84.83-1.92ZM98.34-27.90L98.34-27.90L98.34-27.90Q97.60-26.75 96.96-24.80L96.96-24.80L96.96-24.80Q96.32-22.85 95.26-17.63L95.26-17.63L95.26-17.63Q94.21-12.42 94.21-8.70L94.21-8.70L94.21-8.70Q94.21-4.99 94.78-3.90L94.78-3.90L94.78-3.90Q95.36-2.82 96.38-2.82L96.38-2.82L96.38-2.82Q98.43-2.82 99.94-4.77L99.94-4.77L99.94-4.77Q101.44-6.72 102.02-10.18L102.02-10.18L105.41-28.93L105.41-28.93Q104.06-30.08 102.50-30.08L102.50-30.08L102.50-30.08Q100.93-30.08 100-29.57L100-29.57L100-29.57Q99.07-29.06 98.34-27.90ZM142.27-17.98L142.27-17.98L142.27-17.98Q144.58-22.08 144.58-26.24L144.58-26.24L144.58-26.24Q144.58-28.99 142.59-28.99L142.59-28.99L142.59-28.99Q141.06-28.99 139.46-26.37L139.46-26.37L139.46-26.37Q137.79-23.74 137.28-20.35L137.28-20.35L133.95 0L120.70 1.28L127.23-32.64L137.79-33.92L136.64-27.46L136.64-27.46Q139.78-33.92 146.82-33.92L146.82-33.92L146.82-33.92Q150.53-33.92 152.54-32L152.54-32L152.54-32Q154.56-30.08 154.56-26.14L154.56-26.14L154.56-26.14Q154.56-22.21 151.97-19.71L151.97-19.71L151.97-19.71Q149.38-17.22 144.96-17.22L144.96-17.22L144.96-17.22Q143.04-17.22 142.27-17.98ZM169.79-6.40L169.79-6.40L169.79-6.40Q169.79-8.13 170.69-12.48L170.69-12.48L174.08-29.76L170.30-29.76L170.56-31.68L170.56-31.68Q178.24-33.98 185.66-39.62L185.66-39.62L188.74-39.62L187.20-32.64L192.19-32.64L191.62-29.76L186.69-29.76L183.42-12.48L183.42-12.48Q182.59-8.51 182.59-7.17L182.59-7.17L182.59-7.17Q182.59-4.10 185.28-3.46L185.28-3.46L185.28-3.46Q184.64-1.28 182.34 0L182.34 0L182.34 0Q180.03 1.28 176.77 1.28L176.77 1.28L176.77 1.28Q173.50 1.28 171.65-0.77L171.65-0.77L171.65-0.77Q169.79-2.82 169.79-6.40ZM217.54-10.82L217.54-10.82L217.54-10.82Q219.14-9.73 219.14-7.33L219.14-7.33L219.14-7.33Q219.14-4.93 217.92-3.39L217.92-3.39L217.92-3.39Q216.70-1.86 214.72-0.83L214.72-0.83L214.72-0.83Q210.62 1.28 206.21 1.28L206.21 1.28L206.21 1.28Q201.79 1.28 199.20 0.32L199.20 0.32L199.20 0.32Q196.61-0.64 194.88-2.43L194.88-2.43L194.88-2.43Q191.49-5.82 191.49-12.03L191.49-12.03L191.49-12.03Q191.49-21.70 196.74-27.58L196.74-27.58L196.74-27.58Q202.37-33.92 212.16-33.92L212.16-33.92L212.16-33.92Q218.24-33.92 221.25-31.36L221.25-31.36L221.25-31.36Q223.49-29.44 223.49-26.30L223.49-26.30L223.49-26.30Q223.49-15.04 204.03-15.04L204.03-15.04L204.03-15.04Q203.78-13.38 203.78-11.97L203.78-11.97L203.78-11.97Q203.78-9.02 205.09-7.90L205.09-7.90L205.09-7.90Q206.40-6.78 208.83-6.78L208.83-6.78L208.83-6.78Q211.26-6.78 213.86-7.90L213.86-7.90L213.86-7.90Q216.45-9.02 217.54-10.82ZM204.48-17.79L204.48-17.79L204.48-17.79Q209.02-17.79 211.65-20.61L211.65-20.61L211.65-20.61Q214.27-23.30 214.27-27.58L214.27-27.58L214.27-27.58Q214.27-29.06 213.73-29.86L213.73-29.86L213.73-29.86Q213.18-30.66 212.10-30.66L212.10-30.66L212.10-30.66Q211.01-30.66 210.08-30.24L210.08-30.24L210.08-30.24Q209.15-29.82 208.19-28.42L208.19-28.42L208.19-28.42Q205.82-25.22 204.48-17.79ZM257.09-26.62L257.09-26.62L257.09-26.62Q257.09-23.94 254.85-22.27L254.85-22.27L254.85-22.27Q252.61-20.61 248.96-20.61L248.96-20.61L248.96-20.61Q247.42-20.61 246.53-21.06L246.53-21.06L246.53-21.06Q247.23-22.72 247.46-24.80L247.46-24.80L247.46-24.80Q247.68-26.88 247.68-27.46L247.68-27.46L247.68-27.46Q247.68-30.14 245.82-30.14L245.82-30.14L245.82-30.14Q244.54-30.14 243.10-28.54L243.10-28.54L243.10-28.54Q241.66-26.94 240.45-24.45L240.45-24.45L240.45-24.45Q237.76-18.69 237.76-12.86L237.76-12.86L237.76-12.86Q237.76-9.66 238.98-8.22L238.98-8.22L238.98-8.22Q240.19-6.78 242.88-6.78L242.88-6.78L242.88-6.78Q246.59-6.78 249.54-9.86L249.54-9.86L249.54-9.86Q250.37-10.82 250.82-11.90L250.82-11.90L250.82-11.90Q253.25-10.62 253.25-7.10L253.25-7.10L253.25-7.10Q253.25-3.52 249.28-1.15L249.28-1.15L249.28-1.15Q245.18 1.28 238.66 1.28L238.66 1.28L238.66 1.28Q225.66 1.28 225.66-12.48L225.66-12.48L225.66-12.48Q225.66-22.53 231.36-28.29L231.36-28.29L231.36-28.29Q236.86-33.92 246.98-33.92L246.98-33.92L246.98-33.92Q257.09-33.92 257.09-26.62ZM291.01-7.10L291.01-7.10L291.01-7.10Q291.01-4.29 293.89-3.46L293.89-3.46L293.89-3.46Q293.18-1.09 290.43 0.19L290.43 0.19L290.43 0.19Q288.13 1.28 285.60 1.28L285.60 1.28L285.60 1.28Q283.07 1.28 281.76 0.61L281.76 0.61L281.76 0.61Q280.45-0.06 279.74-1.15L279.74-1.15L279.74-1.15Q278.59-2.82 278.59-5.95L278.59-5.95L278.59-5.95Q278.59-7.81 279.62-12.93L279.62-12.93L280.51-17.79L280.51-17.79Q281.60-23.36 281.60-25.41L281.60-25.41L281.60-25.41Q281.60-28.99 279.62-28.99L279.62-28.99L279.62-28.99Q277.12-28.99 275.52-25.34L275.52-25.34L275.52-25.34Q274.88-23.94 274.43-21.82L274.43-21.82L270.08 0L257.22 1.28L266.24-44.80L279.10-46.08L278.59-43.52L278.59-43.52Q276.80-33.66 275.26-30.34L275.26-30.34L275.26-30.34Q278.85-33.92 285.44-33.92L285.44-33.92L285.44-33.92Q292.42-33.92 293.70-29.31L293.70-29.31L293.70-29.31Q294.14-27.84 294.14-26.56L294.14-26.56L294.14-26.56Q294.14-25.28 294.05-24.29L294.05-24.29L294.05-24.29Q293.95-23.30 293.63-21.50L293.63-21.50L292.80-16.90L291.33-9.66L291.33-9.66Q291.01-8.19 291.01-7.10ZM326.14 1.28L326.14 1.28L326.14 1.28Q318.40 1.28 318.40-4.74L318.40-4.74L318.40-4.74Q318.46-6.40 318.98-9.22L318.98-9.22L320.13-15.10L320.13-15.10Q321.86-23.42 321.86-25.28L321.86-25.28L321.86-25.28Q321.86-28.99 319.68-28.99L319.68-28.99L319.68-28.99Q316.03-28.99 314.11-19.46L314.11-19.46L310.34 0L297.47 1.28L304.13-32.70L314.62-33.92L313.60-27.65L313.60-27.65Q316.61-33.92 325.82-33.92L325.82-33.92L325.82-33.92Q330.30-33.92 332.19-32.03L332.19-32.03L332.19-32.03Q334.08-30.14 334.08-25.92L334.08-25.92L334.08-25.92Q334.08-21.95 332.03-12.67L332.03-12.67L332.03-12.67Q331.07-8.51 331.07-6.94L331.07-6.94L331.07-6.94Q331.07-5.38 331.94-4.48L331.94-4.48L331.94-4.48Q332.80-3.58 334.08-3.46L334.08-3.46L334.08-3.46Q333.44-1.28 331.23 0L331.23 0L331.23 0Q329.02 1.28 326.14 1.28ZM353.15 1.28L353.15 1.28L353.15 1.28Q339.07 1.28 339.07-11.97L339.07-11.97L339.07-11.97Q339.07-21.38 344.26-27.46L344.26-27.46L344.26-27.46Q349.76-33.92 359.30-33.92L359.30-33.92L359.30-33.92Q366.21-33.92 369.73-30.72L369.73-30.72L369.73-30.72Q373.25-27.52 373.25-20.80L373.25-20.80L373.25-20.80Q373.25-10.56 367.74-4.61L367.74-4.61L367.74-4.61Q362.37 1.28 353.15 1.28ZM354.82-26.56L354.82-26.56L354.82-26.56Q354.05-24.83 353.44-22.24L353.44-22.24L353.44-22.24Q352.83-19.65 352.06-15.55L352.06-15.55L352.06-15.55Q351.30-11.46 351.30-6.40L351.30-6.40L351.30-6.40Q351.30-4.74 351.84-3.65L351.84-3.65L351.84-3.65Q352.38-2.56 353.86-2.56L353.86-2.56L353.86-2.56Q355.33-2.56 356.26-3.26L356.26-3.26L356.26-3.26Q357.18-3.97 357.89-5.63L357.89-5.63L357.89-5.63Q359.17-8.58 360.19-14.05L360.19-14.05L360.19-14.05Q361.22-19.52 361.31-21.89L361.31-21.89L361.31-21.89Q361.41-24.26 361.41-26.02L361.41-26.02L361.41-26.02Q361.41-27.78 360.90-28.93L360.90-28.93L360.90-28.93Q360.38-30.08 358.94-30.08L358.94-30.08L358.94-30.08Q357.50-30.08 356.54-29.18L356.54-29.18L356.54-29.18Q355.58-28.29 354.82-26.56ZM392.32-3.52L392.32-3.52L392.32-3.52Q390.34 1.28 384.00 1.28L384.00 1.28L384.00 1.28Q380.80 1.28 378.75-0.96L378.75-0.96L378.75-0.96Q377.09-2.82 377.09-4.93L377.09-4.93L377.09-4.93Q377.09-9.73 379.33-20.22L379.33-20.22L384.00-44.80L396.99-46.08L390.78-13.70L390.78-13.70Q389.70-8.96 389.70-7.30L389.70-7.30L389.70-7.30Q389.70-3.65 392.32-3.52ZM411.71 1.28L411.71 1.28L411.71 1.28Q397.63 1.28 397.63-11.97L397.63-11.97L397.63-11.97Q397.63-21.38 402.82-27.46L402.82-27.46L402.82-27.46Q408.32-33.92 417.86-33.92L417.86-33.92L417.86-33.92Q424.77-33.92 428.29-30.72L428.29-30.72L428.29-30.72Q431.81-27.52 431.81-20.80L431.81-20.80L431.81-20.80Q431.81-10.56 426.30-4.61L426.30-4.61L426.30-4.61Q420.93 1.28 411.71 1.28ZM413.38-26.56L413.38-26.56L413.38-26.56Q412.61-24.83 412-22.24L412-22.24L412-22.24Q411.39-19.65 410.62-15.55L410.62-15.55L410.62-15.55Q409.86-11.46 409.86-6.40L409.86-6.40L409.86-6.40Q409.86-4.74 410.40-3.65L410.40-3.65L410.40-3.65Q410.94-2.56 412.42-2.56L412.42-2.56L412.42-2.56Q413.89-2.56 414.82-3.26L414.82-3.26L414.82-3.26Q415.74-3.97 416.45-5.63L416.45-5.63L416.45-5.63Q417.73-8.58 418.75-14.05L418.75-14.05L418.75-14.05Q419.78-19.52 419.87-21.89L419.87-21.89L419.87-21.89Q419.97-24.26 419.97-26.02L419.97-26.02L419.97-26.02Q419.97-27.78 419.46-28.93L419.46-28.93L419.46-28.93Q418.94-30.08 417.50-30.08L417.50-30.08L417.50-30.08Q416.06-30.08 415.10-29.18L415.10-29.18L415.10-29.18Q414.14-28.29 413.38-26.56ZM440.13-26.75L440.13-26.75L440.13-26.75Q442.30-29.82 445.60-31.87L445.60-31.87L445.60-31.87Q448.90-33.92 452.93-33.92L452.93-33.92L452.93-33.92Q456.96-33.92 458.88-32.64L458.88-32.64L471.42-33.92L467.07-9.34L467.07-9.34Q464.83 3.20 460.10 8.13L460.10 8.13L460.10 8.13Q455.55 12.80 446.72 12.80L446.72 12.80L446.72 12.80Q440.00 12.80 436.16 10.69L436.16 10.69L436.16 10.69Q432.32 8.58 432.32 5.06L432.32 5.06L432.32 5.06Q432.32 2.43 434.30 0.93L434.30 0.93L434.30 0.93Q436.29-0.58 439.36-0.58L439.36-0.58L439.36-0.58Q442.05-0.58 444.10 0.64L444.10 0.64L444.10 0.64Q445.31 1.28 445.89 2.18L445.89 2.18L445.89 2.18Q444.42 3.46 444.42 5.57L444.42 5.57L444.42 5.57Q444.42 8.32 446.98 8.32L446.98 8.32L446.98 8.32Q451.26 8.32 453.70-1.79L453.70-1.79L453.70-1.79Q454.40-4.54 454.98-7.30L454.98-7.30L454.98-7.30Q452.10-3.78 445.57-3.78L445.57-3.78L445.57-3.78Q441.02-3.78 438.40-5.95L438.40-5.95L438.40-5.95Q435.78-8.13 435.78-13.25L435.78-13.25L435.78-13.25Q435.78-16.45 436.86-20.06L436.86-20.06L436.86-20.06Q437.95-23.68 440.13-26.75ZM448.45-13.06L448.45-13.06L448.45-13.06Q448.45-8.70 450.69-8.70L450.69-8.70L450.69-8.70Q452.22-8.70 453.70-10.37L453.70-10.37L453.70-10.37Q454.85-11.71 455.30-13.70L455.30-13.70L458.56-30.14L458.56-30.14Q458.24-30.21 457.92-30.34L457.92-30.34L457.92-30.34Q457.28-30.59 456.45-30.59L456.45-30.59L456.45-30.59Q452.54-30.59 450.24-24.19L450.24-24.19L450.24-24.19Q448.45-19.20 448.45-13.06ZM489.28-3.52L489.28-3.52L489.28-3.52Q487.30 1.28 480.96 1.28L480.96 1.28L480.96 1.28Q477.70 1.28 475.65-0.96L475.65-0.96L475.65-0.96Q473.92-2.94 473.92-4.93L473.92-4.93L473.92-4.93Q473.92-10.11 476.29-20.22L476.29-20.22L478.66-32.64L491.65-33.92L487.74-13.70L487.74-13.70Q486.66-8.96 486.66-7.30L486.66-7.30L486.66-7.30Q486.66-3.65 489.28-3.52ZM479.81-41.54L479.81-41.54L479.81-41.54Q479.81-44.03 481.89-45.38L481.89-45.38L481.89-45.38Q483.97-46.72 486.98-46.72L486.98-46.72L486.98-46.72Q489.98-46.72 491.81-45.38L491.81-45.38L491.81-45.38Q493.63-44.03 493.63-41.54L493.63-41.54L493.63-41.54Q493.63-39.04 491.62-37.76L491.62-37.76L491.62-37.76Q489.60-36.48 486.59-36.48L486.59-36.48L486.59-36.48Q483.58-36.48 481.70-37.76L481.70-37.76L481.70-37.76Q479.81-39.04 479.81-41.54ZM520.64-10.82L520.64-10.82L520.64-10.82Q522.24-9.73 522.24-7.33L522.24-7.33L522.24-7.33Q522.24-4.93 521.02-3.39L521.02-3.39L521.02-3.39Q519.81-1.86 517.82-0.83L517.82-0.83L517.82-0.83Q513.73 1.28 509.31 1.28L509.31 1.28L509.31 1.28Q504.90 1.28 502.30 0.32L502.30 0.32L502.30 0.32Q499.71-0.64 497.98-2.43L497.98-2.43L497.98-2.43Q494.59-5.82 494.59-12.03L494.59-12.03L494.59-12.03Q494.59-21.70 499.84-27.58L499.84-27.58L499.84-27.58Q505.47-33.92 515.26-33.92L515.26-33.92L515.26-33.92Q521.34-33.92 524.35-31.36L524.35-31.36L524.35-31.36Q526.59-29.44 526.59-26.30L526.59-26.30L526.59-26.30Q526.59-15.04 507.14-15.04L507.14-15.04L507.14-15.04Q506.88-13.38 506.88-11.97L506.88-11.97L506.88-11.97Q506.88-9.02 508.19-7.90L508.19-7.90L508.19-7.90Q509.50-6.78 511.94-6.78L511.94-6.78L511.94-6.78Q514.37-6.78 516.96-7.90L516.96-7.90L516.96-7.90Q519.55-9.02 520.64-10.82ZM507.58-17.79L507.58-17.79L507.58-17.79Q512.13-17.79 514.75-20.61L514.75-20.61L514.75-20.61Q517.38-23.30 517.38-27.58L517.38-27.58L517.38-27.58Q517.38-29.06 516.83-29.86L516.83-29.86L516.83-29.86Q516.29-30.66 515.20-30.66L515.20-30.66L515.20-30.66Q514.11-30.66 513.18-30.24L513.18-30.24L513.18-30.24Q512.26-29.82 511.30-28.42L511.30-28.42L511.30-28.42Q508.93-25.22 507.58-17.79ZM547.90-22.46L547.90-22.46L547.90-22.46Q548.80-24.83 548.80-26.88L548.80-26.88L548.80-26.88Q548.80-30.66 545.73-30.66L545.73-30.66L545.73-30.66Q544.13-30.66 542.82-29.22L542.82-29.22L542.82-29.22Q541.50-27.78 541.50-25.98L541.50-25.98L541.50-25.98Q541.50-24.70 542.53-23.68L542.53-23.68L542.53-23.68Q544.00-22.27 547.78-19.97L547.78-19.97L547.78-19.97Q551.55-17.66 552.99-15.78L552.99-15.78L552.99-15.78Q554.43-13.89 554.43-11.30L554.43-11.30L554.43-11.30Q554.43-8.70 553.18-6.34L553.18-6.34L553.18-6.34Q551.94-3.97 549.70-2.30L549.70-2.30L549.70-2.30Q544.90 1.28 537.22 1.28L537.22 1.28L537.22 1.28Q533.06 1.28 529.86-0.90L529.86-0.90L529.86-0.90Q526.66-3.01 526.66-5.50L526.66-5.50L526.66-5.50Q526.66-8 528.48-9.47L528.48-9.47L528.48-9.47Q530.30-10.94 532.99-10.94L532.99-10.94L532.99-10.94Q535.68-10.94 537.34-9.92L537.34-9.92L537.34-9.92Q536.51-7.81 536.51-6.40L536.51-6.40L536.51-6.40Q536.51-2.18 540.10-2.18L540.10-2.18L540.10-2.18Q541.63-2.18 542.66-3.14L542.66-3.14L542.66-3.14Q543.68-4.10 543.68-5.76L543.68-5.76L543.68-5.76Q543.68-9.02 538.18-12.48L538.18-12.48L538.18-12.48Q533.70-15.42 532.67-16.58L532.67-16.58L532.67-16.58Q530.94-18.62 530.94-21.18L530.94-21.18L530.94-21.18Q530.94-23.74 532.16-26.18L532.16-26.18L532.16-26.18Q533.38-28.61 535.62-30.34L535.62-30.34L535.62-30.34Q540.29-33.92 548.42-33.92L548.42-33.92L548.42-33.92Q552.58-33.92 555.04-32.26L555.04-32.26L555.04-32.26Q557.50-30.59 557.50-27.78L557.50-27.78L557.50-27.78Q557.50-24.96 555.81-23.36L555.81-23.36L555.81-23.36Q554.11-21.76 551.04-21.76L551.04-21.76L551.04-21.76Q548.93-21.76 547.90-22.46Z" fill="#444"></path></g></g><style>text {
  font-size: 64px;
  font-family: Arial Black;
  dominant-baseline: central;
  text-anchor: middle;
}</style></svg>